<svg width="60" height="67" viewBox="0 0 60 67" fill="none" xmlns="http://www.w3.org/2000/svg">
<path fill-rule="evenodd" clip-rule="evenodd" d="M38.051 32.0015C46.038 40.6477 56.097 51.253 56.097 51.253C64.2723 58.8632 54.2698 73.3679 44.2484 63.3277C44.1354 63.2146 30.0452 50.0663 25.3359 45.7714L38.051 32.0015Z" fill="url(#paint0_linear_12_309)"/>
<path fill-rule="evenodd" clip-rule="evenodd" d="M38.051 32.0015L38.164 32.1145L28.4064 42.701C33.1157 46.977 47.2059 60.1442 47.3189 60.2572C51.1617 64.1 54.9856 64.3449 57.7923 62.7625C55.3435 66.9255 49.8054 68.8846 44.2484 63.3276C44.1354 63.2146 30.0452 50.0663 25.3359 45.7714L38.051 32.0015Z" fill="url(#paint1_linear_12_309)"/>
<path fill-rule="evenodd" clip-rule="evenodd" d="M0 11.8831V10.8094C0 10.1124 0.847672 3.48172 6.61184 1.42847C15.2016 -1.64198 19.4965 11.3745 27.1067 20.4163C21.2106 26.5949 11.7355 43.1904 3.1458 37.2756C0.828835 35.6932 0.150697 32.0012 0 29.4205V11.8831Z" fill="#0186D5"/>
<path fill-rule="evenodd" clip-rule="evenodd" d="M0.0371094 21.904V11.0727C0.0371094 10.3757 0.734084 3.98989 6.4229 1.74827C14.4099 -1.35986 17.6122 8.54848 24.2617 16.9499C16.2559 23.7877 14.1461 28.1391 3.87989 24.2022C2.33524 23.5994 1.16734 22.8082 0.0371094 21.904Z" fill="#0186D5" fill-opacity="0.470588"/>
<path fill-rule="evenodd" clip-rule="evenodd" d="M0 23.2231C7.08277 29.6466 17.5374 25.8038 24.7332 17.3647C25.5243 18.495 26.259 19.4557 27.1067 20.4164C12.376 41.0242 8.5709 40.6475 0 36.8612V23.2231Z" fill="#0048B4" fill-opacity="0.501961"/>
<path fill-rule="evenodd" clip-rule="evenodd" d="M0 27.2729C8.08114 36.8045 14.3162 30.4564 26.0141 19.1353C26.372 19.5685 26.7299 20.0018 27.1067 20.4162C21.4932 26.2934 13.4874 44.2075 0 36.8798V27.2729Z" fill="#042D9F" fill-opacity="0.501961"/>
<path fill-rule="evenodd" clip-rule="evenodd" d="M0 57.5067C1.07372 67.6976 6.19742 69.2799 13.3179 61.7827C16.1058 58.8629 56.097 15.481 56.097 15.481C64.2724 7.87078 54.2698 -6.61499 44.2485 3.42521C34.8299 12.8249 27.5588 19.5875 17.7258 29.4393C10.7937 36.3902 5.80184 41.5139 0 28.083L0 57.5067Z" fill="#5FD7F5"/>
<path fill-rule="evenodd" clip-rule="evenodd" d="M0 57.5072C1.07372 67.7357 6.19742 70.1092 13.3179 62.612C16.1058 59.6923 56.097 16.3291 56.097 16.3291C64.2724 8.7001 54.2698 -5.78567 44.2485 4.25453C34.6415 13.8615 27.4457 20.5298 17.4809 30.6265C10.6807 37.5209 5.72649 42.494 0 29.2891L0 57.5072Z" fill="url(#paint2_linear_12_309)"/>
<path fill-rule="evenodd" clip-rule="evenodd" d="M0 57.5064C1.07372 67.7162 6.15975 70.1085 13.3179 62.6113C16.1058 59.6916 56.097 16.3284 56.097 16.3284C60.3731 12.335 59.6761 6.4766 56.5868 3.21777C56.4361 3.38731 56.2666 3.55684 56.097 3.72638C56.097 3.72638 16.1058 47.0895 13.3179 50.0281C6.2351 57.4876 1.11139 55.1895 0 45.0928V57.5064Z" fill="url(#paint3_linear_12_309)" fill-opacity="0.501961"/>
<path fill-rule="evenodd" clip-rule="evenodd" d="M2.52393 7.62596C9.9646 -2.20703 13.8262 6.85363 18.0081 12.2034C12.6018 7.04201 11.302 1.59807 2.52393 7.62596Z" fill="#5FD7F5"/>
<defs>
<linearGradient id="paint0_linear_12_309" x1="25.3359" y1="49.3693" x2="59.111" y2="49.3693" gradientUnits="userSpaceOnUse">
<stop stop-color="#0C45AC"/>
<stop offset="1" stop-color="#3BD1F7"/>
</linearGradient>
<linearGradient id="paint1_linear_12_309" x1="25.3359" y1="49.3693" x2="57.7923" y2="49.3693" gradientUnits="userSpaceOnUse">
<stop stop-color="#042D9F"/>
<stop offset="1" stop-color="#37CBF3"/>
</linearGradient>
<linearGradient id="paint2_linear_12_309" x1="-0.13186" y1="33.923" x2="59.111" y2="33.923" gradientUnits="userSpaceOnUse">
<stop stop-color="#189AD6"/>
<stop offset="1" stop-color="#3BD1F7"/>
</linearGradient>
<linearGradient id="paint3_linear_12_309" x1="-0.113023" y1="35.1091" x2="59.111" y2="35.1091" gradientUnits="userSpaceOnUse">
<stop stop-color="#0058B9"/>
<stop offset="1" stop-color="#4BB6E8"/>
</linearGradient>
</defs>
</svg>
